<svg id="Capa_1" enable-background="new 0 0 512 512" height="512" viewBox="0 0 512 512" width="512" xmlns="http://www.w3.org/2000/svg"><g><path d="m512 83v135c0 41.422-34.578 75-76 75h-75l-46.875 30-16.736-17.851z" fill="#ff9100"/><path d="m286.038 277.255c.394-111.442 88.621-202.178 198.54-208.627 4.133-.242 8.229-.628 12.422-.628 8.15 0 14.789 6.899 15 15-37.778 141.605-138.538 199.173-214.611 222.149l-11.389-12.149-15-7.5s15.038-7.994 15.038-8.245z" fill="#fabe2c"/><g><path d="m436 368c0 41.353-33.647 76-75 76s-75-34.647-75-76l-15-37.969 15-37.031h75c41.353 0 75 33.647 75 75z" fill="#c567ea"/></g><path d="m0 83v135c0 41.422 34.578 75 76 75h75l46.874 30 16.737-17.851z" fill="#fabe2c"/><path d="m225.962 277.255c-.394-111.442-88.622-202.178-198.54-208.627-4.133-.242-8.229-.628-12.422-.628-8.15 0-14.789 6.899-15 15 37.778 141.605 138.538 199.173 214.611 222.149l11.389-12.149 15-7.5s-15.038-7.994-15.038-8.245z" fill="#fed843"/><path d="m76 368c0 41.353 33.647 76 75 76s75-34.647 75-76l15-37.969-15-37.031h-75c-41.353 0-75 33.647-75 75z" fill="#e681fa"/><path d="m326.605 72.395c-5.859-5.859-15.352-5.859-21.211 0-21.936 21.936-38.492 47.755-49.394 75.825-10.902-28.07-27.458-53.89-49.395-75.826-5.859-5.859-15.352-5.859-21.211 0s-5.859 15.352 0 21.211c35.86 35.86 55.606 83.541 55.606 134.253v5.142c0 8.291 6.709 15 15 15s15-6.709 15-15v-5.142c0-50.713 19.746-98.394 55.605-134.253 5.86-5.859 5.86-15.351 0-21.21z" fill="#6d1d40"/><path d="m271 233v-5.142c0-50.713 19.746-98.394 55.605-134.253 5.859-5.859 5.859-15.352 0-21.211s-15.352-5.859-21.211 0c-21.936 21.937-38.492 47.756-49.394 75.826v99.78c8.291 0 15-6.709 15-15z" fill="#58072a"/><path d="m256 218c-16.569 0-30 13.431-30 30v120c0 16.569 13.431 30 30 30s30-13.431 30-30v-120c0-16.569-13.431-30-30-30z" fill="#873a62"/><path d="m286 368v-120c0-16.569-13.431-30-30-30v180c16.569 0 30-13.431 30-30z" fill="#6d1d40"/></g></svg>